<?xml version="1.0" encoding="UTF-8" standalone="no"?>
<!-- Created with Inkscape (http://www.inkscape.org/) -->

<svg
   width="56.304264mm"
   height="35.524403mm"
   viewBox="0 0 56.304264 35.524403"
   version="1.1"
   id="svg1"
   xml:space="preserve"
   inkscape:version="1.4.2 (2aeb623e1d, 2025-05-12)"
   sodipodi:docname="hopeturtle logo v1.svg"
   xmlns:inkscape="http://www.inkscape.org/namespaces/inkscape"
   xmlns:sodipodi="http://sodipodi.sourceforge.net/DTD/sodipodi-0.dtd"
   xmlns="http://www.w3.org/2000/svg"
   xmlns:svg="http://www.w3.org/2000/svg"><sodipodi:namedview
     id="namedview1"
     pagecolor="#ffffff"
     bordercolor="#000000"
     borderopacity="0.25"
     inkscape:showpageshadow="2"
     inkscape:pageopacity="0.0"
     inkscape:pagecheckerboard="0"
     inkscape:deskcolor="#d1d1d1"
     inkscape:document-units="mm"
     inkscape:zoom="2.0881594"
     inkscape:cx="111.58152"
     inkscape:cy="129.06103"
     inkscape:window-width="1920"
     inkscape:window-height="1129"
     inkscape:window-x="0"
     inkscape:window-y="32"
     inkscape:window-maximized="1"
     inkscape:current-layer="layer1" /><defs
     id="defs1"><rect
       x="297.87"
       y="517.2019"
       width="286.37662"
       height="62.255787"
       id="rect1" /></defs><g
     inkscape:label="Layer 1"
     inkscape:groupmode="layer"
     id="layer1"
     transform="translate(-114.51936,-98.427644)"><path
       style="fill:#4d4d4d;stroke:#666666;stroke-width:0.3;stroke-dasharray:none"
       d="m 124.12021,120.83582 c 0,-1.0193 0.0313,-1.61389 0.0849,-1.61389 0.0536,0 0.0849,0.59459 0.0849,1.61389 0,1.0193 -0.0313,1.61389 -0.0849,1.61389 -0.0537,0 -0.0849,-0.59459 -0.0849,-1.61389 z m 1.10424,1.52895 c 0,-0.0512 0.35392,-0.0849 0.89189,-0.0849 0.53796,0 0.89189,0.0337 0.89189,0.0849 0,0.0512 -0.35393,0.0849 -0.89189,0.0849 -0.53797,0 -0.89189,-0.0337 -0.89189,-0.0849 z m 1.86872,0 c 0,-0.0515 0.36808,-0.0849 0.93436,-0.0849 0.56627,0 0.93436,0.0335 0.93436,0.0849 0,0.0515 -0.36809,0.0849 -0.93436,0.0849 -0.56628,0 -0.93436,-0.0335 -0.93436,-0.0849 z m 2.71813,-1.52895 c 0,-1.37794 0.0186,-1.61389 0.12741,-1.61389 0.10879,0 0.12742,0.23595 0.12742,1.61389 0,1.37794 -0.0186,1.61389 -0.12742,1.61389 -0.10878,0 -0.12741,-0.23595 -0.12741,-1.61389 z m 5.77604,0 c 0,-1.0193 0.0313,-1.61389 0.0849,-1.61389 0.0537,0 0.0849,0.59459 0.0849,1.61389 0,1.0193 -0.0313,1.61389 -0.0849,1.61389 -0.0537,0 -0.0849,-0.59459 -0.0849,-1.61389 z m 1.0193,1.52895 c 0,-0.0515 0.36808,-0.0849 0.93436,-0.0849 0.56627,0 0.93436,0.0335 0.93436,0.0849 0,0.0515 -0.36809,0.0849 -0.93436,0.0849 -0.56628,0 -0.93436,-0.0335 -0.93436,-0.0849 z m 1.95366,0 c 0,-0.0512 0.35392,-0.0849 0.89188,-0.0849 0.53797,0 0.89189,0.0337 0.89189,0.0849 0,0.0512 -0.35392,0.0849 -0.89189,0.0849 -0.53796,0 -0.89188,-0.0337 -0.89188,-0.0849 z m 2.71813,-1.52895 c 0,-1.0193 0.0313,-1.61389 0.0849,-1.61389 0.0537,0 0.0849,0.59459 0.0849,1.61389 0,1.0193 -0.0313,1.61389 -0.0849,1.61389 -0.0536,0 -0.0849,-0.59459 -0.0849,-1.61389 z m -22.84931,-4.92662 c 0,-1.0193 0.0313,-1.61389 0.0849,-1.61389 0.0536,0 0.0849,0.59459 0.0849,1.61389 0,1.0193 -0.0313,1.6139 -0.0849,1.6139 -0.0537,0 -0.0849,-0.5946 -0.0849,-1.6139 z m 1.10424,1.52895 c 0,-0.0512 0.35392,-0.0849 0.89189,-0.0849 0.53796,0 0.89188,0.0337 0.89188,0.0849 0,0.0512 -0.35392,0.0849 -0.89188,0.0849 -0.53797,0 -0.89189,-0.0337 -0.89189,-0.0849 z m 1.86871,0 c 0,-0.0512 0.35393,-0.0849 0.89189,-0.0849 0.53797,0 0.89189,0.0337 0.89189,0.0849 0,0.0512 -0.35392,0.0849 -0.89189,0.0849 -0.53796,0 -0.89189,-0.0337 -0.89189,-0.0849 z m 1.95366,0 c 0,-0.0512 0.35393,-0.0849 0.89189,-0.0849 0.53797,0 0.89189,0.0337 0.89189,0.0849 0,0.0512 -0.35392,0.0849 -0.89189,0.0849 -0.53796,0 -0.89189,-0.0337 -0.89189,-0.0849 z m 1.86872,0 c 0,-0.0512 0.35392,-0.0849 0.89189,-0.0849 0.53796,0 0.89189,0.0337 0.89189,0.0849 0,0.0512 -0.35393,0.0849 -0.89189,0.0849 -0.53797,0 -0.89189,-0.0337 -0.89189,-0.0849 z m 1.86872,0 c 0,-0.0515 0.36808,-0.0849 0.93436,-0.0849 0.56627,0 0.93436,0.0335 0.93436,0.0849 0,0.0515 -0.36809,0.0849 -0.93436,0.0849 -0.56628,0 -0.93436,-0.0335 -0.93436,-0.0849 z m 1.95366,0 c 0,-0.0512 0.35392,-0.0849 0.89188,-0.0849 0.53797,0 0.89189,0.0337 0.89189,0.0849 0,0.0512 -0.35392,0.0849 -0.89189,0.0849 -0.53796,0 -0.89188,-0.0337 -0.89188,-0.0849 z m 1.86871,0 c 0,-0.0512 0.35393,-0.0849 0.89189,-0.0849 0.53797,0 0.89189,0.0337 0.89189,0.0849 0,0.0512 -0.35392,0.0849 -0.89189,0.0849 -0.53796,0 -0.89189,-0.0337 -0.89189,-0.0849 z m 1.95366,0 c 0,-0.0512 0.35393,-0.0849 0.89189,-0.0849 0.53797,0 0.89189,0.0337 0.89189,0.0849 0,0.0512 -0.35392,0.0849 -0.89189,0.0849 -0.53796,0 -0.89189,-0.0337 -0.89189,-0.0849 z m 1.86872,0 c 0,-0.0512 0.35392,-0.0849 0.89189,-0.0849 0.53796,0 0.89189,0.0337 0.89189,0.0849 0,0.0512 -0.35393,0.0849 -0.89189,0.0849 -0.53797,0 -0.89189,-0.0337 -0.89189,-0.0849 z m 1.86872,0 c 0,-0.0515 0.36808,-0.0849 0.93436,-0.0849 0.56627,0 0.93436,0.0335 0.93436,0.0849 0,0.0515 -0.36809,0.0849 -0.93436,0.0849 -0.56628,0 -0.93436,-0.0335 -0.93436,-0.0849 z m 1.95366,0 c 0,-0.0512 0.35392,-0.0849 0.89188,-0.0849 0.53797,0 0.89189,0.0337 0.89189,0.0849 0,0.0512 -0.35392,0.0849 -0.89189,0.0849 -0.53796,0 -0.89188,-0.0337 -0.89188,-0.0849 z m 1.86871,0 c 0,-0.0512 0.35393,-0.0849 0.89189,-0.0849 0.53797,0 0.89189,0.0337 0.89189,0.0849 0,0.0512 -0.35392,0.0849 -0.89189,0.0849 -0.53796,0 -0.89189,-0.0337 -0.89189,-0.0849 z m 1.95366,0 c 0,-0.0512 0.35393,-0.0849 0.89189,-0.0849 0.53796,0 0.89189,0.0337 0.89189,0.0849 0,0.0512 -0.35393,0.0849 -0.89189,0.0849 -0.53796,0 -0.89189,-0.0337 -0.89189,-0.0849 z m 2.65956,-1.52895 c 0.34942,-1.09417 0.55418,-1.61389 0.63584,-1.61389 0.0731,0 0.10089,0.051 0.0707,0.12961 -0.0274,0.0713 -0.26353,0.79754 -0.52484,1.61389 -0.29536,0.92273 -0.5171,1.48429 -0.5861,1.48429 -0.0772,0 0.0461,-0.49178 0.40439,-1.6139 z m -26.61311,-4.92662 c 0,-1.0193 0.0313,-1.61389 0.0849,-1.61389 0.0536,0 0.0849,0.59459 0.0849,1.61389 0,1.01931 -0.0313,1.6139 -0.0849,1.6139 -0.0537,0 -0.0849,-0.59459 -0.0849,-1.6139 z m 22.84931,0 c 0,-1.0193 0.0313,-1.61389 0.0849,-1.61389 0.0537,0 0.0849,0.59459 0.0849,1.61389 0,1.01931 -0.0313,1.6139 -0.0849,1.6139 -0.0536,0 -0.0849,-0.59459 -0.0849,-1.6139 z m 1.35907,1.55733 c 0,-0.19212 1.04397,-3.17122 1.1113,-3.17122 0.0428,0 0.0762,0.0478 0.0741,0.10618 -0.009,0.26344 -0.9875,3.06979 -1.08081,3.10089 -0.0575,0.0192 -0.1046,0.003 -0.1046,-0.0358 z m 3.48261,-0.0284 c 0,-0.0515 0.36808,-0.085 0.93436,-0.085 0.56627,0 0.93435,0.0335 0.93435,0.085 0,0.0515 -0.36808,0.0849 -0.93435,0.0849 -0.56628,0 -0.93436,-0.0335 -0.93436,-0.0849 z m 1.95366,0 c 0,-0.0512 0.35392,-0.085 0.89188,-0.085 0.53797,0 0.89189,0.0337 0.89189,0.085 0,0.0512 -0.35392,0.0849 -0.89189,0.0849 -0.53796,0 -0.89188,-0.0337 -0.89188,-0.0849 z m 2.69323,-1.46559 c -0.27064,-0.85242 -0.49043,-1.57851 -0.48841,-1.61355 0.002,-0.035 0.0408,-0.0637 0.0861,-0.0637 0.0453,0 0.29913,0.67847 0.564,1.50772 0.26487,0.82924 0.49944,1.55549 0.52126,1.61389 0.0218,0.0584 -0.0122,0.10602 -0.0756,0.10583 -0.0748,-2.2e-4 -0.28811,-0.5447 -0.60735,-1.55018 z m 1.89362,-0.0634 c 0,-1.0193 0.0313,-1.61389 0.0849,-1.61389 0.0536,0 0.0849,0.59459 0.0849,1.61389 0,1.01931 -0.0313,1.6139 -0.0849,1.6139 -0.0537,0 -0.0849,-0.59459 -0.0849,-1.6139 z m -32.84086,-3.44237 c 0.0274,-0.0713 0.26462,-0.79756 0.52723,-1.61389 0.28935,-0.89941 0.52028,-1.48425 0.58609,-1.48425 0.0739,0 -0.0561,0.51573 -0.40679,1.6139 -0.34942,1.09417 -0.55417,1.61389 -0.63583,1.61389 -0.0731,0 -0.10089,-0.051 -0.0707,-0.12965 z m 21.43377,-1.42088 c -0.27064,-0.85242 -0.49043,-1.57851 -0.48841,-1.61355 0.002,-0.035 0.0408,-0.0637 0.0861,-0.0637 0.0453,0 0.29913,0.67848 0.564,1.50772 0.26487,0.82924 0.49944,1.55549 0.52126,1.61389 0.0218,0.0584 -0.0122,0.10602 -0.0756,0.10583 -0.0748,-2.2e-4 -0.28811,-0.5447 -0.60735,-1.55018 z m 3.84728,-0.0634 c 0,-1.0193 0.0313,-1.6139 0.0849,-1.6139 0.0536,0 0.0849,0.5946 0.0849,1.6139 0,1.0193 -0.0313,1.61389 -0.0849,1.61389 -0.0537,0 -0.0849,-0.59459 -0.0849,-1.61389 z m 7.55981,0 c 0,-1.0193 0.0313,-1.6139 0.0849,-1.6139 0.0536,0 0.0849,0.5946 0.0849,1.6139 0,1.0193 -0.0313,1.61389 -0.0849,1.61389 -0.0537,0 -0.0849,-0.59459 -0.0849,-1.61389 z m -2.28503,0.79833 c -0.47661,-0.60591 -0.25945,-1.97151 0.3273,-2.05826 0.553,-0.0818 0.85349,0.31205 0.85349,1.11859 0,0.78812 -0.23171,1.16064 -0.72191,1.16064 -0.20586,0 -0.33336,-0.0614 -0.45888,-0.22097 z m 0.79013,-0.14004 c 0.22575,-0.35105 0.21394,-1.30749 -0.0197,-1.59605 -0.19832,-0.24491 -0.53742,-0.17864 -0.6793,0.13277 -0.12755,0.27993 -0.12868,1.1005 -0.002,1.34146 0.19226,0.36526 0.50892,0.4203 0.70087,0.12182 z m -0.44343,-0.84941 c 0.0149,-0.10512 0.0845,-0.19112 0.15455,-0.19112 0.0701,0 0.13963,0.086 0.15456,0.19112 0.0209,0.14709 -0.0147,0.19112 -0.15456,0.19112 -0.13984,0 -0.17544,-0.044 -0.15455,-0.19112 z m -27.36656,-3.20655 c 0,-0.0512 0.35393,-0.0849 0.89189,-0.0849 0.53797,0 0.89189,0.0337 0.89189,0.0849 0,0.0512 -0.35392,0.0849 -0.89189,0.0849 -0.53796,0 -0.89189,-0.0337 -0.89189,-0.0849 z m 1.86872,0 c 0,-0.0512 0.35392,-0.0849 0.89189,-0.0849 0.53796,0 0.89189,0.0337 0.89189,0.0849 0,0.0512 -0.35393,0.0849 -0.89189,0.0849 -0.53797,0 -0.89189,-0.0337 -0.89189,-0.0849 z m 1.86872,0 c 0,-0.0515 0.36808,-0.0849 0.93436,-0.0849 0.56627,0 0.93436,0.0335 0.93436,0.0849 0,0.0515 -0.36809,0.0849 -0.93436,0.0849 -0.56628,0 -0.93436,-0.0335 -0.93436,-0.0849 z m 1.95366,0 c 0,-0.0512 0.35392,-0.0849 0.89188,-0.0849 0.53797,0 0.89189,0.0337 0.89189,0.0849 0,0.0512 -0.35392,0.0849 -0.89189,0.0849 -0.53796,0 -0.89188,-0.0337 -0.89188,-0.0849 z m 1.86871,0 c 0,-0.0512 0.35393,-0.0849 0.89189,-0.0849 0.53797,0 0.89189,0.0337 0.89189,0.0849 0,0.0512 -0.35392,0.0849 -0.89189,0.0849 -0.53796,0 -0.89189,-0.0337 -0.89189,-0.0849 z m 1.95366,0 c 0,-0.0512 0.35393,-0.0849 0.89189,-0.0849 0.53797,0 0.89189,0.0337 0.89189,0.0849 0,0.0512 -0.35392,0.0849 -0.89189,0.0849 -0.53796,0 -0.89189,-0.0337 -0.89189,-0.0849 z m 1.86872,0 c 0,-0.0512 0.35392,-0.0849 0.89189,-0.0849 0.53796,0 0.89189,0.0337 0.89189,0.0849 0,0.0512 -0.35393,0.0849 -0.89189,0.0849 -0.53797,0 -0.89189,-0.0337 -0.89189,-0.0849 z m 1.86872,0 c 0,-0.0515 0.36808,-0.0849 0.93436,-0.0849 0.56627,0 0.93436,0.0335 0.93436,0.0849 0,0.0515 -0.36809,0.0849 -0.93436,0.0849 -0.56628,0 -0.93436,-0.0335 -0.93436,-0.0849 z m 1.95366,0 c 0,-0.0512 0.35392,-0.0849 0.89188,-0.0849 0.53797,0 0.89189,0.0337 0.89189,0.0849 0,0.0512 -0.35392,0.0849 -0.89189,0.0849 -0.53796,0 -0.89188,-0.0337 -0.89188,-0.0849 z m 7.55981,0 c 0,-0.0515 0.36808,-0.0849 0.93436,-0.0849 0.56627,0 0.93435,0.0335 0.93435,0.0849 0,0.0515 -0.36808,0.0849 -0.93435,0.0849 -0.56628,0 -0.93436,-0.0335 -0.93436,-0.0849 z m 1.95366,0 c 0,-0.0512 0.35392,-0.0849 0.89188,-0.0849 0.53797,0 0.89189,0.0337 0.89189,0.0849 0,0.0512 -0.35392,0.0849 -0.89189,0.0849 -0.53796,0 -0.89188,-0.0337 -0.89188,-0.0849 z m 1.86871,0 c 0,-0.0512 0.35393,-0.0849 0.89189,-0.0849 0.53797,0 0.89189,0.0337 0.89189,0.0849 0,0.0512 -0.35392,0.0849 -0.89189,0.0849 -0.53796,0 -0.89189,-0.0337 -0.89189,-0.0849 z"
       id="path2" /><text
       xml:space="preserve"
       transform="matrix(0.29934559,0,0,0.29934559,-7.5967947,-33.009401)"
       id="text1"
       style="font-size:32px;line-height:1.2;font-family:Mulish;-inkscape-font-specification:Mulish;text-align:end;letter-spacing:0px;writing-mode:lr-tb;direction:ltr;white-space:pre;shape-inside:url(#rect1);display:inline;fill:#74c0ff;stroke:none;stroke-width:25.96998339;stroke-opacity:1;stroke-dasharray:none;fill-opacity:1"><tspan
         x="427.44647"
         y="546.02667"
         id="tspan4">hope<tspan
   style="font-weight:bold;-inkscape-font-specification:'Mulish Bold'"
   id="tspan3">turtle</tspan></tspan></text></g></svg>
